:SAMPLES-PER-SECOND 30
:FULLY-SPECIFIED
:DEGREES
359
root  9.32425 33.9957 1.08362 3.14639 -12.9509 3.18028
LeftUpLeg  -12.0224 13.7091 -3.05939
LeftLeg  16.1633 9.4245 2.074
LeftFoot  0.831559 -0.000971948 0.133927
LeftToes  -11.9535 1.85109e-006 5.31342e-008
Spine  3.11053 0.118153 -1.24212
Spine1  6.05673 -0.00466907 -2.05042
RightShoulder  0.0517657 5.42674 10.2919
RightArm  -45.4729 -18.2748 70.8876
RightForeArm  41.2481 11.1429 1.97756
RightHand  1.15319 -13.2499 -9.5298
LeftShoulder1  0.0437872 1.42507 -10.1882
LeftArm  -18.2029 9.19513 -64.9266
LeftForeArm  32.4933 -18.8045 -3.43259
LeftHand  0.01858 0.668862 2.78342
HEad  -10.8967 3.09688 -1.2452
RightUpLeg  -17.6606 -24.5922 0.0444741
RightLeg  10.7447 -31.0126 -3.63037
RightFoot  10.0572 0.573018 -6.12724
RightToes  -28.7346 -0.135305 -0.243076
360
root  9.36057 33.9746 0.774666 2.97171 -12.8414 3.39653
LeftUpLeg  -12.7094 13.8455 -3.32973
LeftLeg  16.6653 9.23079 2.11622
LeftFoot  1.11668 -0.00174642 0.179199
LeftToes  -11.9022 1.85109e-006 5.31342e-008
Spine  3.21607 0.0826935 -1.2471
Spine1  6.28476 -0.0694566 -2.0585
RightShoulder  0.045712 5.45518 10.4548
RightArm  -46.4642 -18.955 70.4255
RightForeArm  41.5784 10.561 1.87115
RightHand  1.20801 -13.3631 -9.90983
LeftShoulder1  0.0441062 1.37666 -10.213
LeftArm  -18.3029 9.47097 -65.0835
LeftForeArm  32.512 -18.7201 -3.41597
LeftHand  0.0197818 0.729388 2.71122
HEad  -11.2121 3.0341 -1.64271
RightUpLeg  -17.9691 -24.9747 0.134401
RightLeg  10.2938 -30.7417 -3.36913
RightFoot  10.484 0.614373 -6.31094
RightToes  -28.2325 -0.131941 -0.239495
361
root  9.41731 33.9486 0.421839 2.79535 -13.1548 3.60097
LeftUpLeg  -13.5601 14.7203 -3.64277
LeftLeg  17.3257 8.76458 2.11623
LeftFoot  1.34018 -7.37165e-005 0.206273
LeftToes  -11.6322 1.85109e-006 5.31342e-008
Spine  3.35747 0.0699984 -1.23026
Spine1  6.58533 -0.072469 -2.04675
RightShoulder  0.0395165 5.51544 10.5929
RightArm  -47.1919 -19.3973 69.9222
RightForeArm  41.4798 10.2268 1.81058
RightHand  1.24886 -13.4561 -10.1819
LeftShoulder1  0.0444701 1.19769 -10.163
LeftArm  -18.3044 10.0428 -65.2959
LeftForeArm  31.3745 -18.9853 -3.46896
LeftHand  0.0297349 1.35419 2.13475
HEad  -11.8589 3.1664 -2.06013
RightUpLeg  -18.3256 -25.1486 0.321694
RightLeg  9.58953 -30.2433 -2.96227
RightFoot  11.0226 0.663552 -6.49091
RightToes  -27.2837 -0.12567 -0.23265
362
root  9.49751 33.9253 0.0344631 2.63214 -14.005 3.9826
LeftUpLeg  -14.2575 15.3962 -4.15875
LeftLeg  17.4528 9.03549 2.20221
LeftFoot  1.90195 -0.00262471 0.306217
LeftToes  -11.3375 1.85109e-006 5.31342e-008
Spine  3.50741 0.0752226 -1.2524
Spine1  6.90368 -0.0263165 -2.13187
RightShoulder  0.0352185 5.56819 10.7248
RightArm  -47.7262 -19.4817 69.423
RightForeArm  41.4975 10.1109 1.78955
RightHand  1.26209 -13.5432 -10.2242
LeftShoulder1  0.0447957 0.716995 -10.2006
LeftArm  -17.5911 11.2661 -65.1751
LeftForeArm  28.6752 -20.0665 -3.68519
LeftHand  0.0291401 1.48495 1.86959
HEad  -12.5411 3.50667 -2.33605
RightUpLeg  -18.9986 -25.4737 0.548277
RightLeg  9.02071 -28.9662 -2.57171
RightFoot  11.6289 0.700171 -6.48973
RightToes  -25.9654 -0.117148 -0.22297
363
root  9.60876 33.9338 -0.409786 2.26151 -15.0871 4.46304
LeftUpLeg  -14.66 15.7394 -4.74964
LeftLeg  17.1187 9.98866 2.37103
LeftFoot  2.9724 -0.0137754 0.530935
LeftToes  -11.3831 1.85109e-006 5.31342e-008
Spine  3.78799 -0.0548888 -1.28454
Spine1  7.50885 -0.18285 -2.3524
RightShoulder  0.0331262 5.48073 10.8356
RightArm  -47.7569 -19.0261 69.2739
RightForeArm  40.3049 10.8773 1.93024
RightHand  1.26835 -13.6448 -10.197
LeftShoulder1  0.0327963 -0.144632 -9.8248
LeftArm  -16.0948 14.1631 -64.749
LeftForeArm  23.9365 -25.6901 -4.85893
LeftHand  0.0240375 1.22543 1.86689
HEad  -13.1944 3.92944 -2.06841
RightUpLeg  -19.3512 -25.676 0.650328
RightLeg  7.87551 -27.3602 -1.91238
RightFoot  12.6933 0.777242 -6.60153
RightToes  -24.7699 -0.109614 -0.214024
